<svg width="15" height="14" viewBox="0 0 15 14" fill="none" xmlns="http://www.w3.org/2000/svg">
<path d="M14.5849 3.22311C14.3615 2.7098 14.0394 2.24464 13.6365 1.85368C13.2333 1.46155 12.758 1.14993 12.2363 0.935761C11.6954 0.712803 11.1152 0.59868 10.5295 0.600018C9.70772 0.600018 8.90596 0.823295 8.20921 1.24504C8.04253 1.34593 7.88418 1.45674 7.73416 1.57748C7.58414 1.45674 7.42579 1.34593 7.2591 1.24504C6.56236 0.823295 5.7606 0.600018 4.93884 0.600018C4.3471 0.600018 3.7737 0.712483 3.23198 0.935761C2.70858 1.15077 2.23686 1.46005 1.83181 1.85368C1.42843 2.2442 1.10619 2.70947 0.883373 3.22311C0.65168 3.75732 0.533333 4.32461 0.533333 4.90844C0.533333 5.45919 0.646679 6.0331 0.871705 6.61693C1.06006 7.10483 1.33009 7.61092 1.67513 8.12198C2.22186 8.93074 2.97361 9.77423 3.90705 10.6293C5.4539 12.0467 6.98574 13.0258 7.05075 13.0655L7.44579 13.3169C7.62081 13.4277 7.84584 13.4277 8.02086 13.3169L8.4159 13.0655C8.48091 13.0242 10.0111 12.0467 11.5596 10.6293C12.493 9.77423 13.2448 8.93074 13.7915 8.12198C14.1366 7.61092 14.4083 7.10483 14.5949 6.61693C14.82 6.0331 14.9333 5.45919 14.9333 4.90844C14.935 4.32461 14.8166 3.75732 14.5849 3.22311ZM13.6348 6.32129C13.4649 6.7677 13.2197 7.23131 12.8979 7.71424C12.4028 8.4395 11.703 9.22509 10.8463 10.0106C9.79632 10.9764 8.75135 11.708 7.74081 12.3068L7.73748 12.3068L7.73249 12.31C7.73082 12.309 7.73082 12.309 7.7325 12.31L7.72582 12.3068C6.71862 11.708 5.67365 10.9764 4.62533 10.0089C3.76865 9.22509 3.0689 8.4395 2.5738 7.71424C2.25033 7.23131 2.00678 6.7677 1.83688 6.32129C1.64032 5.82339 1.55034 5.35313 1.55034 4.90844C1.55034 3.84431 1.93371 3.00748 2.63179 2.3161C3.3282 1.62638 4.18654 1.2502 4.93884 1.2502C5.53136 1.2502 6.08308 1.41704 6.59984 1.73931C7.07156 2.03494 7.44661 2.45299 7.71847 2.98299C7.77181 3.07298 7.85012 3.13631 7.93344 3.13631H7.94013H7.94347H7.95016C8.03348 3.13631 8.11179 3.07298 8.16513 2.98299C8.43699 2.45299 8.81204 2.03494 9.28376 1.73931C9.80052 1.41704 10.3522 1.2502 10.9448 1.2502C11.6971 1.2502 12.5554 1.62638 13.2518 2.3161C13.9499 3.00748 14.3333 3.84431 14.3333 4.90844C14.3333 5.35313 14.2433 5.82339 14.0467 6.32129H13.6348Z" stroke="#b0b0b0" stroke-width="1"/>
</svg> 